<svg width="25" height="24" viewBox="0 0 25 24" fill="none" xmlns="http://www.w3.org/2000/svg">
<g id="solar:heart-outline">
<path id="Vector" fill-rule="evenodd" clip-rule="evenodd" d="M6.25501 4.42407C4.59601 5.18207 3.38101 6.98607 3.38101 9.13707C3.38101 11.3341 4.28101 13.0281 5.56901 14.4801C6.63201 15.6761 7.91801 16.6681 9.17201 17.6341C9.47001 17.8641 9.76601 18.0931 10.057 18.3221C10.583 18.7371 11.052 19.1001 11.505 19.3651C11.957 19.6291 12.321 19.7501 12.631 19.7501C12.941 19.7501 13.305 19.6301 13.757 19.3651C14.21 19.1001 14.679 18.7371 15.205 18.3221C15.495 18.0921 15.792 17.8641 16.09 17.6341C17.344 16.6681 18.63 15.6761 19.693 14.4801C20.982 13.0281 21.881 11.3341 21.881 9.13707C21.881 6.98707 20.666 5.18207 19.007 4.42407C17.395 3.68707 15.229 3.88207 13.171 6.02107C13.101 6.09366 13.0172 6.15139 12.9244 6.19083C12.8316 6.23026 12.7318 6.25059 12.631 6.25059C12.5302 6.25059 12.4304 6.23026 12.3376 6.19083C12.2449 6.15139 12.161 6.09366 12.091 6.02107C10.033 3.88207 7.86701 3.68707 6.25501 4.42407ZM12.631 4.46007C10.319 2.39007 7.73001 2.10007 5.63101 3.05907C3.41701 4.07407 1.88101 6.42607 1.88101 9.13807C1.88101 11.8031 2.99101 13.8371 4.44801 15.4771C5.61401 16.7901 7.04101 17.8891 8.30201 18.8591C8.58801 19.0791 8.86501 19.2931 9.12801 19.5011C9.64101 19.9051 10.191 20.3351 10.748 20.6611C11.305 20.9861 11.941 21.2511 12.631 21.2511C13.321 21.2511 13.957 20.9861 14.514 20.6611C15.072 20.3351 15.621 19.9051 16.134 19.5011C16.4079 19.2852 16.6833 19.0712 16.96 18.8591C18.22 17.8891 19.648 16.7891 20.814 15.4771C22.271 13.8371 23.381 11.8031 23.381 9.13807C23.381 6.42607 21.846 4.07407 19.631 3.06107C17.532 2.10107 14.943 2.39107 12.631 4.46007Z" fill="black"/>
</g>
</svg>
